<mxfile host="app.diagrams.net" agent="Mozilla/5.0 (Windows NT 10.0; Win64; x64) AppleWebKit/537.36 (KHTML, like Gecko) Chrome/131.0.0.0 Safari/537.36" version="25.0.3">
  <diagram name="Page-1" id="BH_mxlVxT-Sd-9fnM7T4">
    <mxGraphModel dx="934" dy="534" grid="1" gridSize="10" guides="1" tooltips="1" connect="1" arrows="1" fold="1" page="1" pageScale="1" pageWidth="850" pageHeight="1100" math="0" shadow="0">
      <root>
        <mxCell id="0" />
        <mxCell id="1" parent="0" />
        <mxCell id="j0rK9b8wAoZoHjjp0tZs-1" value="PM" style="rounded=1;html=1;fillColor=#000000;fontColor=#ffffff;fontFamily=Verdana;" vertex="1" parent="1">
          <mxGeometry x="140" y="100" width="150" height="30" as="geometry" />
        </mxCell>
        <mxCell id="j0rK9b8wAoZoHjjp0tZs-2" value="TIK" style="rounded=1;html=1;fillColor=#000000;fontColor=#ffffff;fontFamily=Verdana;" vertex="1" parent="1">
          <mxGeometry x="340" y="100" width="150" height="30" as="geometry" />
        </mxCell>
        <mxCell id="j0rK9b8wAoZoHjjp0tZs-3" value="DOKUMEN" style="rounded=1;html=1;fillColor=#000000;fontColor=#ffffff;fontFamily=Verdana;" vertex="1" parent="1">
          <mxGeometry x="540" y="100" width="150" height="30" as="geometry" />
        </mxCell>
        <mxCell id="j0rK9b8wAoZoHjjp0tZs-15" style="edgeStyle=orthogonalEdgeStyle;rounded=0;orthogonalLoop=1;jettySize=auto;html=1;exitX=0.5;exitY=1;exitDx=0;exitDy=0;entryX=0.5;entryY=0;entryDx=0;entryDy=0;" edge="1" parent="1" source="j0rK9b8wAoZoHjjp0tZs-4" target="j0rK9b8wAoZoHjjp0tZs-8">
          <mxGeometry relative="1" as="geometry" />
        </mxCell>
        <mxCell id="j0rK9b8wAoZoHjjp0tZs-4" value="PM Menginput Nama Pekerjaan, Pemberi Kerja,Nama TIM dan Nama PM &amp;amp; PA" style="rounded=1;whiteSpace=wrap;html=1;fontFamily=Verdana;dashed=1;" vertex="1" parent="1">
          <mxGeometry x="140" y="160" width="150" height="90" as="geometry" />
        </mxCell>
        <mxCell id="j0rK9b8wAoZoHjjp0tZs-7" style="edgeStyle=orthogonalEdgeStyle;rounded=0;orthogonalLoop=1;jettySize=auto;html=1;exitX=0.5;exitY=1;exitDx=0;exitDy=0;" edge="1" parent="1">
          <mxGeometry relative="1" as="geometry">
            <mxPoint x="660" y="220" as="sourcePoint" />
            <mxPoint x="660" y="220" as="targetPoint" />
          </mxGeometry>
        </mxCell>
        <mxCell id="j0rK9b8wAoZoHjjp0tZs-16" style="edgeStyle=orthogonalEdgeStyle;rounded=0;orthogonalLoop=1;jettySize=auto;html=1;exitX=1;exitY=0.5;exitDx=0;exitDy=0;entryX=0;entryY=0.5;entryDx=0;entryDy=0;" edge="1" parent="1" source="j0rK9b8wAoZoHjjp0tZs-8" target="j0rK9b8wAoZoHjjp0tZs-9">
          <mxGeometry relative="1" as="geometry" />
        </mxCell>
        <mxCell id="j0rK9b8wAoZoHjjp0tZs-8" value="&lt;font face=&quot;Verdana&quot;&gt;PM Mengupload File Awal yang dibutuhkan&amp;nbsp;&lt;/font&gt;" style="rounded=1;whiteSpace=wrap;html=1;dashed=1;" vertex="1" parent="1">
          <mxGeometry x="140" y="280" width="150" height="90" as="geometry" />
        </mxCell>
        <mxCell id="j0rK9b8wAoZoHjjp0tZs-17" style="edgeStyle=orthogonalEdgeStyle;rounded=0;orthogonalLoop=1;jettySize=auto;html=1;exitX=0.5;exitY=1;exitDx=0;exitDy=0;entryX=0.5;entryY=0;entryDx=0;entryDy=0;" edge="1" parent="1" source="j0rK9b8wAoZoHjjp0tZs-9" target="j0rK9b8wAoZoHjjp0tZs-11">
          <mxGeometry relative="1" as="geometry" />
        </mxCell>
        <mxCell id="j0rK9b8wAoZoHjjp0tZs-20" style="edgeStyle=orthogonalEdgeStyle;rounded=0;orthogonalLoop=1;jettySize=auto;html=1;exitX=1;exitY=0.5;exitDx=0;exitDy=0;entryX=0;entryY=0.5;entryDx=0;entryDy=0;" edge="1" parent="1" source="j0rK9b8wAoZoHjjp0tZs-9" target="j0rK9b8wAoZoHjjp0tZs-14">
          <mxGeometry relative="1" as="geometry" />
        </mxCell>
        <mxCell id="j0rK9b8wAoZoHjjp0tZs-9" value="&lt;font face=&quot;Verdana&quot;&gt;TIK memantau proses upload file dan Input data&amp;nbsp;&lt;/font&gt;" style="rounded=1;whiteSpace=wrap;html=1;dashed=1;" vertex="1" parent="1">
          <mxGeometry x="340" y="160" width="150" height="70" as="geometry" />
        </mxCell>
        <mxCell id="j0rK9b8wAoZoHjjp0tZs-18" style="edgeStyle=orthogonalEdgeStyle;rounded=0;orthogonalLoop=1;jettySize=auto;html=1;exitX=0.5;exitY=1;exitDx=0;exitDy=0;entryX=0.5;entryY=0;entryDx=0;entryDy=0;" edge="1" parent="1" source="j0rK9b8wAoZoHjjp0tZs-11" target="j0rK9b8wAoZoHjjp0tZs-12">
          <mxGeometry relative="1" as="geometry">
            <Array as="points">
              <mxPoint x="415" y="380" />
              <mxPoint x="215" y="380" />
            </Array>
          </mxGeometry>
        </mxCell>
        <mxCell id="j0rK9b8wAoZoHjjp0tZs-11" value="&lt;font face=&quot;Verdana&quot;&gt;TIK Fix Error apabila terdapat error selama upload file&amp;nbsp;&lt;/font&gt;" style="rounded=1;whiteSpace=wrap;html=1;dashed=1;" vertex="1" parent="1">
          <mxGeometry x="340" y="260" width="150" height="70" as="geometry" />
        </mxCell>
        <mxCell id="j0rK9b8wAoZoHjjp0tZs-19" style="edgeStyle=orthogonalEdgeStyle;rounded=0;orthogonalLoop=1;jettySize=auto;html=1;exitX=1;exitY=0.5;exitDx=0;exitDy=0;" edge="1" parent="1" source="j0rK9b8wAoZoHjjp0tZs-12">
          <mxGeometry relative="1" as="geometry">
            <mxPoint x="330" y="440" as="targetPoint" />
          </mxGeometry>
        </mxCell>
        <mxCell id="j0rK9b8wAoZoHjjp0tZs-12" value="&lt;font face=&quot;Verdana&quot;&gt;PM meminta Data di pindahkan di laman data verifikasi&lt;/font&gt;" style="rounded=1;whiteSpace=wrap;html=1;dashed=1;" vertex="1" parent="1">
          <mxGeometry x="140" y="400" width="150" height="80" as="geometry" />
        </mxCell>
        <mxCell id="j0rK9b8wAoZoHjjp0tZs-13" value="&lt;font face=&quot;Verdana&quot;&gt;TIK memindahkan Data ke laman data verifikasi&lt;/font&gt;" style="rounded=1;whiteSpace=wrap;html=1;dashed=1;" vertex="1" parent="1">
          <mxGeometry x="340" y="400" width="150" height="80" as="geometry" />
        </mxCell>
        <mxCell id="j0rK9b8wAoZoHjjp0tZs-14" value="&lt;font face=&quot;Verdana&quot;&gt;DATA REKANAN&lt;/font&gt;" style="rounded=1;whiteSpace=wrap;html=1;dashed=1;" vertex="1" parent="1">
          <mxGeometry x="540" y="155" width="150" height="80" as="geometry" />
        </mxCell>
      </root>
    </mxGraphModel>
  </diagram>
</mxfile>
